<svg width="current" height="current" viewBox="0 0 36 39" fill="none" xmlns="http://www.w3.org/2000/svg">
<path d="M28.7549 12.102C28.7549 9.15753 27.5852 6.33371 25.5032 4.25169C23.4212 2.16967 20.5974 1 17.6529 1C14.7085 1 11.8847 2.16967 9.80267 4.25169C7.72065 6.33371 6.55098 9.15753 6.55098 12.102C6.55098 25.0542 1 28.7549 1 28.7549H34.3059C34.3059 28.7549 28.7549 25.0542 28.7549 12.102Z" stroke="black" stroke-width="2" stroke-linecap="round" stroke-linejoin="round"/>
<path d="M20.854 36.1562C20.5287 36.717 20.0618 37.1825 19.5 37.5061C18.9382 37.8297 18.3013 38 17.653 38C17.0047 38 16.3677 37.8297 15.8059 37.5061C15.2441 37.1825 14.7772 36.717 14.4519 36.1562" stroke="black" stroke-width="2" stroke-linecap="round" stroke-linejoin="round"/>
</svg>
